<?xml version="1.0" standalone="no"?>
<!DOCTYPE svg PUBLIC "-//W3C//DTD SVG 20010904//EN"
 "http://www.w3.org/TR/2001/REC-SVG-20010904/DTD/svg10.dtd">
<svg version="1.0" xmlns="http://www.w3.org/2000/svg"
 width="1280.000000pt" height="1280.000000pt" viewBox="0 0 1280.000000 1280.000000"
 preserveAspectRatio="xMidYMid meet">
<metadata>
Created by potrace 1.15, written by Peter Selinger 2001-2017
</metadata>
<g transform="translate(0.000000,1280.000000) scale(0.100000,-0.100000)"
fill="#000000" stroke="none">
<path d="M6255 10754 c-366 -35 -676 -140 -950 -321 -697 -460 -1037 -1272
-870 -2083 23 -114 45 -186 125 -415 23 -66 436 -1299 916 -2740 481 -1441
882 -2639 890 -2663 11 -29 21 -42 35 -42 10 0 19 1 19 3 0 8 1826 5465 1854
5539 202 541 174 1113 -79 1618 -290 578 -842 981 -1485 1085 -93 15 -376 27
-455 19z"/>
</g>
</svg>
