<svg width="20" height="21" viewBox="0 0 20 21" fill="none" xmlns="http://www.w3.org/2000/svg">
<path d="M9.53074 0.00488018C9.49168 0.0081622 9.35573 0.0180083 9.22603 0.0278544C7.21647 0.18211 5.25222 1.01082 3.67083 2.37286C0.919013 4.74413 -0.421735 8.41671 0.117377 12.1057C0.539291 14.9857 2.10975 17.5736 4.43027 19.2146C6.07261 20.3764 8.01967 21 9.99954 21C11.9794 21 13.9265 20.3764 15.5688 19.2146C17.8503 17.6031 19.4067 15.0759 19.8598 12.2485C20.5161 8.16071 18.8332 4.07623 15.5391 1.75912C14.1484 0.781079 12.5841 0.203443 10.8746 0.0344184C10.6355 0.0114442 9.69795 -0.00988894 9.53074 0.00488018ZM10.8215 0.889386C11.97 1.00098 13.0217 1.31113 14.028 1.83297C14.4296 2.04138 14.7015 2.20384 15.0313 2.4303C16.7892 3.64629 18.1034 5.45633 18.7457 7.54369C19.2754 9.26676 19.327 11.1638 18.891 12.918C18.5441 14.3145 17.93 15.5617 17.0221 16.7088C16.797 16.9943 16.172 17.6474 15.8907 17.8936C14.4171 19.1768 12.7232 19.9136 10.8043 20.1073C10.4152 20.1467 9.58387 20.1467 9.19478 20.1073C7.27429 19.9136 5.58194 19.1768 4.10837 17.8936C3.81615 17.6392 3.19891 16.9894 2.95826 16.6841C2.36915 15.9391 1.91442 15.1646 1.55657 14.2932C0.792439 12.4405 0.611172 10.3252 1.04871 8.33138C1.53313 6.11765 2.76293 4.14187 4.50528 2.77163C5.76321 1.7821 7.25553 1.14374 8.80411 0.932052C9.01038 0.904155 9.31354 0.876258 9.60106 0.858207C9.80108 0.845079 10.5824 0.864771 10.8215 0.889386Z" fill="#D0D6F9"/>
<path d="M10.4059 5.10192V5.5171L10.7387 5.51874C10.9934 5.52038 11.1184 5.52858 11.2778 5.55648C12.1904 5.70909 12.9717 6.13412 13.5968 6.82006C14.1937 7.47318 14.5641 8.29041 14.6797 9.20937C14.6953 9.32425 14.7063 9.53758 14.7063 9.72301L14.7094 10.0381L15.1001 10.0348L15.4923 10.0299L15.4907 9.69347C15.4892 9.21922 15.4485 8.89102 15.336 8.4381C15.1766 7.79646 14.8954 7.19913 14.4859 6.63298C14.3359 6.42458 13.8859 5.94704 13.6749 5.77309C12.9452 5.1692 12.0748 4.80161 11.1419 4.70479C11.0528 4.69659 10.8512 4.68838 10.6934 4.68838H10.4059V5.10192Z" fill="#D0D6F9"/>
<path d="M10.0355 6.208L9.98545 6.21621L9.98076 6.62318L9.97607 7.03179L10.3199 7.04C10.6105 7.04656 10.6933 7.05477 10.8558 7.09087C11.7716 7.296 12.5279 7.90153 12.9373 8.7565C13.1639 9.22911 13.2545 9.63116 13.2561 10.1645L13.2576 10.4812H13.6545H14.0499L14.0421 10.1153C14.0343 9.71157 14.0108 9.52449 13.9296 9.19136C13.7967 8.64491 13.5389 8.1083 13.1982 7.66686C13.0623 7.49128 12.7451 7.168 12.5654 7.02195C12.0388 6.59692 11.3918 6.31959 10.7183 6.23098C10.5683 6.21129 10.112 6.19652 10.0355 6.208Z" fill="#D0D6F9"/>
<path d="M5.87415 6.63458C5.66944 6.6592 5.51943 6.72648 5.30378 6.89386C4.78655 7.29591 4.37401 8.0278 4.12399 8.98451C4.03491 9.32749 4.00835 9.53425 4.01929 9.83292C4.04898 10.6666 4.40839 11.6216 5.11626 12.7457C5.42879 13.2429 5.93665 13.9305 6.24293 14.2719C6.38201 14.4261 6.67266 14.6952 7.00706 14.9759C8.06029 15.8636 9.12445 16.4823 9.96984 16.6989C10.2558 16.7711 10.4761 16.8007 10.7418 16.8007C11.0059 16.8007 11.1449 16.7793 11.4543 16.6907C12.506 16.392 13.2951 15.839 13.6014 15.1843C13.6639 15.053 13.6749 15.0136 13.6889 14.8626C13.7046 14.7199 13.703 14.6591 13.6827 14.5164C13.5983 13.9223 13.2748 13.517 12.6185 13.1822C11.956 12.8425 11.445 12.7736 11.0699 12.9705C10.9184 13.0509 10.8309 13.1346 10.673 13.3578C10.4074 13.7303 10.1917 13.9174 9.89014 14.029C9.75263 14.0815 9.4776 14.0881 9.31196 14.0438C9.15257 14.0027 8.90724 13.8797 8.75722 13.7664C8.28218 13.412 7.2899 12.3666 6.91487 11.8267C6.82423 11.6955 6.68203 11.3935 6.64766 11.2606C6.58202 10.9931 6.60703 10.7256 6.72266 10.4729C6.83986 10.2202 7.00706 10.0282 7.32272 9.78533C7.40085 9.72461 7.49617 9.63928 7.53367 9.59661C7.89621 9.17323 7.83058 8.42 7.3571 7.5437C7.04457 6.96443 6.61796 6.66412 6.06791 6.63458C5.99134 6.6313 5.90384 6.6313 5.87415 6.63458Z" fill="#D0D6F9"/>
<path d="M9.48389 8.19012V8.60858L9.67609 8.59874C10.4668 8.56099 11.2231 9.02868 11.5622 9.7655C11.7107 10.0871 11.7669 10.3464 11.7669 10.7107C11.7669 10.8453 11.7638 10.9634 11.7622 10.9766C11.7591 10.993 11.8325 10.9995 12.1498 11.0028L12.542 11.0061L12.5529 10.9454C12.567 10.8518 12.5639 10.5745 12.5467 10.4022C12.4123 9.06314 11.4325 7.99156 10.1699 7.79792C10.0714 7.78315 9.89642 7.77331 9.74329 7.77331H9.48389V8.19012Z" fill="#D0D6F9"/>
</svg>
