<svg width="30" height="30" viewBox="0 0 30 30" fill="none" xmlns="http://www.w3.org/2000/svg">
<path d="M14.2961 0.00697168C14.2375 0.0116603 14.0336 0.0257261 13.839 0.0397919C10.8247 0.260157 7.87834 1.44403 5.50624 3.3898C1.37852 6.77732 -0.632603 12.0239 0.176065 17.2939C0.808936 21.4081 3.16462 25.1051 6.64541 27.4494C9.10892 29.1092 12.0295 30 14.9993 30C17.9691 30 20.8897 29.1092 23.3532 27.4494C26.7754 25.1473 29.11 21.5371 29.7897 17.4978C30.7742 11.6582 28.2497 5.82319 23.3087 2.51303C21.2225 1.11583 18.8762 0.290632 16.3119 0.0491692C15.9533 0.0163489 14.5469 -0.0141271 14.2961 0.00697168ZM16.2322 1.27055C17.955 1.42996 19.5325 1.87304 21.042 2.61853C21.6444 2.91625 22.0523 3.14834 22.5469 3.47185C25.1838 5.20898 27.1551 7.79475 28.1185 10.7767C28.9131 13.2382 28.9904 15.9482 28.3365 18.4543C27.8161 20.4493 26.8949 22.231 25.5331 23.8696C25.1956 24.2776 24.258 25.2106 23.8361 25.5622C21.6257 27.3955 19.0848 28.4481 16.2064 28.7247C15.6228 28.781 14.3758 28.781 13.7922 28.7247C10.9114 28.4481 8.37291 27.3955 6.16255 25.5622C5.72423 25.1989 4.79837 24.2705 4.4374 23.8345C3.55372 22.7702 2.87163 21.6637 2.33486 20.4188C1.18866 17.7721 0.916758 14.7503 1.57307 11.902C2.2997 8.7395 4.1444 5.91696 6.75792 3.95947C8.64481 2.54585 10.8833 1.63392 13.2062 1.3315C13.5156 1.29165 13.9703 1.2518 14.4016 1.22601C14.7016 1.20726 15.8736 1.23539 16.2322 1.27055Z" fill="#72AB46"/>
<path d="M15.6089 7.28866V7.88177L16.1082 7.88412C16.4902 7.88646 16.6777 7.89818 16.9168 7.93804C18.2857 8.15606 19.4577 8.76323 20.3953 9.74315C21.2907 10.6762 21.8462 11.8436 22.0196 13.1565C22.0431 13.3206 22.0595 13.6253 22.0595 13.8902L22.0642 14.3403L22.6502 14.3356L23.2385 14.3286L23.2362 13.848C23.2338 13.1705 23.1729 12.7017 23.0041 12.0546C22.765 11.138 22.3431 10.2847 21.729 9.4759C21.504 9.17817 20.8289 8.49598 20.5125 8.24749C19.4178 7.38478 18.1122 6.85966 16.7129 6.72134C16.5793 6.70962 16.2769 6.6979 16.0402 6.6979H15.6089V7.28866Z" fill="#72AB46"/>
<path d="M15.0532 8.86858L14.9782 8.8803L14.9711 9.46169L14.9641 10.0454L15.4798 10.0571C15.9158 10.0665 16.04 10.0782 16.2838 10.1298C17.6573 10.4229 18.7918 11.2879 19.4059 12.5093C19.7458 13.1844 19.8818 13.7588 19.8841 14.5207L19.8864 14.9731H20.4818H21.0748L21.0631 14.4504C21.0514 13.8737 21.0162 13.6064 20.8943 13.1305C20.6951 12.3499 20.3084 11.5833 19.7974 10.9527C19.5934 10.7018 19.1176 10.24 18.8481 10.0314C18.0581 9.42418 17.0877 9.02799 16.0775 8.9014C15.8525 8.87326 15.168 8.85217 15.0532 8.86858Z" fill="#72AB46"/>
<path d="M8.81128 9.47801C8.50422 9.51317 8.2792 9.60929 7.95573 9.84841C7.17988 10.4228 6.56107 11.4683 6.18604 12.8351C6.05243 13.325 6.01259 13.6204 6.02899 14.0471C6.07353 15.238 6.61264 16.6024 7.67446 18.2082C8.14325 18.9185 8.90504 19.9008 9.36446 20.3884C9.57307 20.6088 10.009 20.9932 10.5107 21.3941C12.0905 22.6624 13.6867 23.5462 14.9548 23.8556C15.3838 23.9588 15.7143 24.001 16.1127 24.001C16.5089 24.001 16.7175 23.9705 17.1816 23.8439C18.7591 23.4172 19.9428 22.6272 20.4022 21.6918C20.4959 21.5043 20.5124 21.448 20.5335 21.2324C20.5569 21.0284 20.5545 20.9417 20.5241 20.7377C20.3975 19.8891 19.9123 19.31 18.9278 18.8318C17.934 18.3465 17.1675 18.2481 16.605 18.5294C16.3776 18.6442 16.2463 18.7638 16.0096 19.0826C15.6111 19.6148 15.2877 19.882 14.8353 20.0414C14.629 20.1165 14.2165 20.1258 13.968 20.0625C13.7289 20.0039 13.3609 19.8281 13.1359 19.6664C12.4233 19.16 10.9349 17.6667 10.3724 16.8954C10.2364 16.7078 10.0231 16.2765 9.97154 16.0866C9.8731 15.7045 9.9106 15.3224 10.0841 14.9613C10.2599 14.6003 10.5107 14.326 10.9841 13.9791C11.1013 13.8923 11.2443 13.7704 11.3006 13.7095C11.8444 13.1046 11.7459 12.0286 11.0357 10.7768C10.5669 9.94921 9.92701 9.52021 9.10193 9.47801C8.98708 9.47332 8.85582 9.47332 8.81128 9.47801Z" fill="#72AB46"/>
<path d="M14.2258 11.7003V12.2981L14.5141 12.2841C15.7002 12.2301 16.8347 12.8983 17.3433 13.9509C17.566 14.4103 17.6504 14.7807 17.6504 15.3012C17.6504 15.4934 17.6457 15.6622 17.6433 15.6809C17.6386 15.7044 17.7488 15.7138 18.2246 15.7185L18.813 15.7231L18.8294 15.6364C18.8505 15.5028 18.8458 15.1066 18.82 14.8604C18.6184 12.9475 17.1488 11.4167 15.2548 11.14C15.1072 11.1189 14.8446 11.1049 14.6149 11.1049H14.2258V11.7003Z" fill="#72AB46"/>
</svg>
